<svg width="914" height="906" viewBox="0 0 914 906" fill="none" xmlns="http://www.w3.org/2000/svg">
<path d="M56.6749 47.6412C70.51 30.4297 83.9771 18.3202 95.2967 13.5256M63.5464 48.01C68.7615 41.0947 73.7618 29.1696 91.3088 9.09974M61.8592 85.9983C77.627 63.8385 100.481 41.3406 132.201 6.36435M64.8042 82.3408C77.4736 64.9757 89.5295 48.5018 125.575 11.6507M57.3498 119.069C89.9283 89.3484 125.575 48.3174 156.006 10.2677M61.9206 122.696C94.8979 84.0927 122.415 52.3129 156.895 7.04051M62.5341 154.475C106.739 102.718 155.362 55.079 191.253 15.4311M57.6872 158.963C103.61 105.269 149.318 58.4291 193.002 11.5893M58.086 200.701C113.825 129.58 180.486 61.6256 221.868 11.2512M60.7242 195.384C118.519 132.961 172.51 69.4015 227.022 9.37636M60.2334 239.457C123.151 167.569 184.688 97.8005 259.355 5.78038M60.2947 232.204C136.864 148.636 209.72 62.2403 258.22 10.575M63.4851 271.114C131.556 181.983 200.886 105.853 287.332 7.25566M64.1293 271.083C130.115 190.681 206.285 104.04 289.142 11.3741M57.1964 310.854C117.599 243.391 185.946 160.192 316.782 5.65744M62.7489 308.273C156.374 201.315 253.281 89.041 322.304 9.46856M64.0679 348.597C151.251 251.659 230.458 148.021 355.557 3.50601M58.9143 346.783C177.847 214.101 296.75 82.0642 357.367 6.97904M60.6935 381.514C150.883 286.82 238.311 187.362 389.731 9.62224M58.6689 382.651C140.023 295.641 212.052 209.245 387.86 7.53227M65.4791 423.006C153.674 315.741 245.95 220.217 412.431 10.698M63.9759 423.313C180.363 289.801 294.296 157.672 420.806 9.31489M56.5829 462.1C201.376 290.17 340.433 137.233 450.225 5.16569M61.6752 456.169C167.203 329.879 282.639 201.469 450.9 11.0668M80.2038 475.777C162.417 388.337 241.471 292.905 483.54 10.9131M79.1302 476.115C232.237 300.988 384.823 128.228 482.343 10.7594M114.408 472.028C265.153 299.544 419.733 123.556 510.689 12.6957M112.537 476.331C271.565 298.683 428.322 113.967 515.045 11.4971M148.367 481.771C233.127 380.315 312.334 282.64 548.697 8.85387M142.539 476.392C299.081 301.111 451.299 123.741 546.366 9.22268M172.939 473.78C340.894 285.836 507.437 103.363 584.067 13.8944M174.044 475.685C315.248 323.21 449.918 170.027 579.343 12.1118M203.493 477.683C356.692 301.572 512.744 126.292 611.4 9.31489M206.653 474.855C335.403 334.889 456.943 190.251 614.253 10.4521M241.532 479.22C385.681 318.477 525.26 150.634 649.868 15.4619M242.759 478.605C353.318 344.693 464.888 215.699 646.064 12.2962M269.08 480.695C376.08 351.332 481.515 232.358 682.754 8.66946M273.804 476.392C385.743 345.585 499.89 209.706 678.03 7.65521M309.327 473.718C400.345 366.115 496.884 256.208 706.835 15.1545M305.155 478.236C439.151 332.83 564.587 187.515 713.492 9.99105M343.9 477.56C460.624 340.913 571.796 202.975 749.107 6.11847M336.722 473.472C501.363 296.778 664.747 107.42 742.082 9.16121M373.656 478.574C477.405 351.301 583.852 226.057 772.974 13.587M371.233 477.437C491.025 336.21 615.173 189.821 775.612 7.34786M401.94 479.834C517.775 338.854 641.402 198.088 805.092 14.632M406.02 473.749C511.824 351.209 621.37 223.414 806.687 10.8516M440.224 473.626C572.87 316.817 713.614 160.622 841.566 14.0481M435.715 477.621C542.715 357.54 642.383 244.221 838.99 10.6672M469.459 479.865C552.102 365.685 643.365 262.17 875.618 5.78038M471.607 477.99C580.202 342.45 693.061 213.21 873.532 7.31712M498.633 476.792C658.887 294.104 815.307 116.887 896.6 18.7812M497.988 475.409C623.732 341.743 749.537 195.906 899.76 15.0623M535.169 474.609C600.602 384.218 679.441 308.027 900.496 53.1735M533.941 476.73C663.642 327.728 791.288 180.692 901.907 52.2514M564.526 480.541C632.229 400.077 708.062 314.143 896.294 84.5537M565.907 476.515C688.49 331.785 814.909 190.65 904.454 90.3319M601.553 480.664C671.679 391.38 752.543 301.05 898.196 133.852M600.724 480.511C703.829 354.651 817.24 227.071 900.742 131.885M633.303 473.687C694.748 406.778 749.261 341.589 904.791 172.179M629.929 480.511C711.927 387.968 788.373 299.82 902.521 167.814M662.047 476.853C725.057 417.043 777.544 346.753 905.343 202.422M663.581 475.87C749.782 382.835 831.075 290.661 900.343 206.632M698.951 483C757.819 399.801 821.228 323.056 906.294 243.791M696.497 476.669C756.807 412.832 811.135 349.058 899.085 243.729M733.677 479.097C781.195 416.428 826.351 368.728 898.594 278.767M729.72 475.931C776.348 425.126 823.713 367.96 900.619 278.952M764.722 476.853C798.251 443.967 829.725 402.69 898.502 323.117M761.317 477.345C797.331 432.318 839.388 385.386 898.84 315.895M793.588 481.955C833.775 442.83 862.335 403.52 900.619 348.935M795.582 479.988C824.265 444.551 855.8 410.773 902.92 355.789M830.738 475.808C852.058 450.39 871.599 420.916 896.294 390.765M827.762 474.978C857.61 444.305 886.876 410.128 903.84 389.72M864.973 470.645C878.869 452.573 890.036 435.638 900.251 431.919M859.236 479.65C868.378 465.819 880.035 456.476 903.901 429.491M94.5912 467.571C90.2658 453.034 74.1606 446.579 59.5892 432.779M101.003 462.992C84.3145 452.327 71.9212 440.309 59.6812 429.737M140.33 461.732C103.794 438.035 80.2345 415.476 65.8165 398.756M135.391 463.699C107.383 441.477 84.2225 415.26 64.4054 397.158M167.939 457.797C152.846 438.435 129.869 420.424 67.4117 369.957M175.455 458.996C147.202 440.801 118.212 416.951 63.8532 361.966M210.457 457.675C160.883 423.836 126.127 379.362 58.8529 327.297M208.064 458.105C162.325 416.244 108.181 376.873 63.0556 333.229M243.25 456.322C196.345 414.953 154.472 371.371 65.9392 298.253M244.416 459.211C207.696 426.54 167.356 390.119 61.8286 297.485M289.848 463.268C219.629 411.542 159.84 345.953 56 267.426M288.989 460.932C203.248 393.316 124.746 321.243 60.0493 267.395M320.647 463.637C251.625 397.926 178.246 334.95 66.7675 231.927M320.892 463.453C236.44 385.386 148.091 306.09 60.7856 235.554M358.717 461.24C258.496 373.799 160.883 288.264 65.1416 207.462M360.067 459.058C286.811 394.146 207.911 332.707 61.0616 202.084M390.958 464.067C300.094 370.295 193.799 291.061 63.9146 173.101M399.701 464.006C312.272 388.306 232.022 318.476 61.031 171.656M437.862 455.8C298.499 347.613 158 232.542 66.4607 138.831M436.175 462.223C353.716 388.982 269.632 317.708 61.0003 138.094M475.932 465.297C378.196 372.293 265.245 288.049 60.5708 102.472M474.337 459.519C334.482 346.046 199.873 228.884 58.3007 105.853M508.327 466.465C381.54 351.24 261.717 245.604 61.5831 68.2643M509.185 460.195C406.91 369.404 299.204 279.935 62.5648 68.6024M547.899 458.228C410.131 347.675 276.442 222.983 57.4111 40.2956M548.697 463.483C401.572 337.901 261.165 211.15 61.9513 36.884M589.251 460.717C440.93 338.977 292.118 211.243 63.6998 7.59374M584.036 460.01C387.031 281.041 186.314 110.31 65.6018 5.93406M620.48 465.02C508.296 367.314 395.283 265.213 101.432 8.33137M623.333 458.412C495.749 350.471 372.889 245.635 98.5178 7.68594M660.421 465.512C552.838 363.196 437.985 267.395 137.876 5.90332M658.304 462.162C488.203 317.77 319.389 169.136 134.593 6.11847M702.387 466.403C548.605 328.373 394.21 188.499 174.473 6.7639M694.902 459.457C509.093 299.452 311.69 128.351 176.958 6.61022M733.339 456.968C563.943 316.264 384.608 164.218 208.125 6.17994M732.971 458.965C602.995 349.365 467.649 229.591 211.346 9.71444M771.931 461.609C635.849 345.677 504.584 234.663 250.52 5.68818M770.151 463.268C625.204 329.572 478.202 205.895 248.956 4.79687M815.369 464.651C603.271 281.195 392.706 96.3252 292.363 10.2062M809.049 465.051C642.015 313.375 471.883 166.063 288.222 6.82537M845.8 460.471C728.615 352.469 607.657 246.711 321.567 3.75188M845.462 462.715C694.411 329.234 537.715 194.523 325.003 8.2699M881.017 460.072C675.391 275.755 473.846 105.484 362.398 9.40709M884.821 459.303C759.691 352.008 630.696 240.594 362.858 10.114M901.815 442.707C780.673 334.889 664.072 236.199 397.799 12.7879M903.533 448.3C759.077 328.988 615.633 199.963 401.081 5.87259M908.564 419.348C739.935 271.883 580.938 133.514 441.544 10.9438M902.889 415.967C785.398 307.135 660.912 204.85 435.408 7.00978M908.012 385.817C752.972 251.659 608.179 110.771 468.907 9.71444M904.607 382.528C787.76 283.377 667.109 175.713 472.619 5.41157M903.533 351.117C776.962 231.558 645.758 120.145 515.167 9.37636M907.092 348.535C749.69 218.066 601.737 90.7622 509.093 5.4423M903.564 321.15C807.362 232.819 719.32 148.544 555.63 13.3412M901.907 316.356C808.681 231.128 715.915 154.353 551.949 5.87259M902.828 291.184C808.773 196.183 708.553 107.144 585.601 12.5113M904.822 288.664C796.134 189.728 683.459 89.4713 589.374 7.10198M904.3 256.792C806.074 174.668 709.35 87.074 628.609 4.15144M906.263 251.198C807.853 170.765 708.86 83.1399 625.726 7.71668M902.337 219.756C841.014 165.233 782.023 110.463 659.624 2M906.846 218.681C841.413 158.102 767.237 97.2165 663.243 5.74965M904.177 186.225C866.783 146.361 823.743 116.979 699.472 7.77815M904.914 186.931C858.653 148.144 815.246 105.546 695.024 3.75188M901.478 150.203C834.419 94.143 775.182 36.7918 737.358 7.00978M908.135 156.104C869.237 121.374 832.885 93.8664 734.965 7.77815M901.079 124.386C861.905 89.0718 831.198 50.2229 776.808 3.87482M905.865 121.804C865.525 82.2486 825.185 47.3339 774.753 9.96032M906.509 84.7381C888.011 68.418 862.611 56.7387 806.657 2.67617M908.994 90.2089C871.139 60.2118 837.333 29.3233 813.16 9.96032M912 62.732C888.164 37.8368 868.102 23.207 846.966 5.90332M904.024 56.6773C893.379 45.1824 883.593 34.5174 849.818 3.87482M907.03 26.4034C902.858 17.3367 891.631 16.599 884.514 8.0855M905.558 25.7888C900.742 20.7482 894.238 15.5541 884.759 6.94831" stroke="white" stroke-width="3" stroke-linecap="round"/>
<path d="M421.5 182.066C294.5 182.066 213.167 228.444 175 248.06C153.166 259.282 138.503 272.06 126.38 287.494C117.311 299.04 109.664 312.073 101.5 327.053L73.5 479.54H839L845.5 445.041C841.723 417.512 834.231 401.464 809 375.05L831 368.551C809.342 335.015 790.866 318.263 739.5 294.558L767.5 280.059C705.966 243.752 668.641 225.731 574.5 216.565L597 202.066C516.949 187.847 484.328 193.899 401.5 202.066C409.908 188.951 409.078 189.067 421.5 182.066Z" fill="#146EFF" stroke="#050508" stroke-width="15"/>
<mask id="mask0_208_12" style="mask-type:alpha" maskUnits="userSpaceOnUse" x="55" y="117" width="775" height="264">
<path d="M352.003 215.565C279.5 231.563 262.719 237.83 116.503 318.555C-29.7125 399.28 134.004 155.571 134.004 155.571L829.004 117.574L814.503 380.549C762.541 324.312 754 363.051 701.503 338.053C658.5 318.555 708.003 287.058 708.003 287.058C708.003 287.058 663.5 287.058 635.503 318.555C602 287.058 615 270.56 635.503 257.561C596.754 246.707 590 275.059 567.003 318.555C545.5 287.058 475 248.062 507.504 226.064C507.504 226.064 466 215.565 381.503 306.056C315.5 269.56 333.174 233.563 352.003 215.565Z" fill="white" fill-opacity="0.25"/>
</mask>
<g mask="url(#mask0_208_12)">
<path d="M421.504 182.068C294.504 182.068 213.171 228.446 175.004 248.062C153.17 259.284 138.507 272.062 126.384 287.496C117.315 299.042 109.668 312.075 101.504 327.055L73.5039 479.542H839.004L845.504 445.043C841.727 417.514 834.235 401.466 809.004 375.052L831.004 368.553C809.346 335.017 790.87 318.265 739.504 294.56L767.504 280.061C705.97 243.754 668.645 225.732 574.504 216.567L597.004 202.068C516.953 187.849 484.331 193.901 401.504 202.068C409.911 188.953 409.082 189.069 421.504 182.068Z" fill="white" stroke="#050508" stroke-width="15"/>
</g>
<path d="M114.116 305.577L4 289.91L52.1759 370.204L26.6132 404.476L48.2432 408.392L20.7141 435.81L52.1759 442.664L29.5627 472.04H273.884L339.757 435.81L370.235 423.08L354.505 413.288H384L354.505 390.767L379.084 384.892L286.665 305.577V212.064L202.603 268.368L114.116 305.577Z" fill="#146EFF"/>
<path d="M181.5 337.553L140.5 468.54H277L355 420.545L181.5 337.553Z" fill="white" fill-opacity="0.25"/>
<path d="M97.5 361.55L53.5 368.549L19.5 301.556L97.5 361.55Z" fill="white" fill-opacity="0.25"/>
<path d="M244 313.555L280 231.062V301.556L244 313.555Z" fill="white" fill-opacity="0.25"/>
<path d="M206.185 272.783L280 223.146V304.555V307.993L282.604 310.237L365.511 381.672L354.75 384.254L339.449 387.926L351.937 397.499L364.389 407.045H356.5H330.347L352.525 420.905L356.243 423.228L338.6 430.626L338.228 430.782L337.875 430.977L272.567 467.039H41.2014L54.9518 449.106L62.1346 439.738L50.6026 437.215L32.0032 433.147L50.303 414.849L60.426 404.727L46.3415 402.166L36.2209 400.326L55.0204 375.022L58.0074 371.001L55.438 366.702L14.5029 298.205L110.939 311.98L113 312.274L114.917 311.465L204.917 273.468L205.584 273.187L206.185 272.783Z" stroke="#050508" stroke-width="15"/>
<path d="M143.643 434.694C137.526 433.928 132.093 433.206 128.002 432.648C131.098 431.977 135.052 431.198 139.698 430.448C151.478 428.546 167.686 426.832 185.621 427.51C187.627 430.965 188.561 433.227 188.612 434.917C188.637 435.744 188.447 436.432 188.023 437.092C187.634 437.698 187.014 438.329 186.07 439.013C173.144 438.184 156.821 436.342 143.643 434.694ZM255.01 297.383L254.882 298.489L255.904 298.931C258.804 300.187 262.077 300.007 265.89 299.105C267.651 298.689 269.587 298.103 271.72 297.391C269.173 299.233 266.713 300.732 264.099 301.988C259.73 304.086 254.865 305.534 248.35 306.713C251.095 291.899 256.114 278.576 264.974 259.433C259.836 275.008 256.2 287.064 255.01 297.383ZM282.919 388.943C275.615 396.454 268.584 405.71 259.965 419.099C258.674 418.328 257.825 417.311 257.155 415.904C256.308 414.128 255.754 411.755 255.1 408.416C263.711 397.08 271.012 389.573 279.18 384.064C285.361 379.895 292.091 376.836 300.353 374.148C293.917 378.755 288.354 383.354 282.919 388.943ZM223.722 444.541C225.154 443.308 226.339 442.614 227.954 441.976C229.816 441.523 231.185 441.294 232.514 441.281C233.007 441.277 233.505 441.302 234.03 441.361L229.981 444.541H223.722ZM25.2737 307.554H33.823C46.6689 322.1 56.0907 331.327 69.7761 342.946C58.9883 336.85 49.762 330.745 35.5435 319.466L25.2737 307.554ZM76.741 358.199L71.1832 353.216L78.1847 356.817L81.6909 359.585L76.741 358.199ZM269.13 308.512L263.999 310.124C265.016 309.306 265.921 308.552 266.843 307.75L269.13 308.512ZM164.98 326.777C166.627 330.72 167.944 334.721 169.191 339.094C167.456 335.991 165.643 333.018 163.54 329.987C159.169 323.69 153.569 317.182 144.834 308.719L151.214 304.111C157.936 312.683 162.004 319.653 164.98 326.777ZM193.834 329.869C189.595 314.941 185.251 305.058 176.339 293.596L185.669 289.118C191.349 304.474 193.303 315.181 193.834 329.869Z" fill="#050508" stroke="#050508" stroke-width="3"/>
<path d="M375.5 255.559C375.157 240.954 377.198 231.269 390 208.064H409C391.886 221.025 384.791 231.793 375.5 255.559Z" fill="#050508"/>
<path d="M409 255.559C412.487 239.793 414.583 230.86 429.5 208.064L458 198.064C430.41 224.467 420.625 236.625 409 255.559Z" fill="#050508"/>
<path d="M582 266.058C579.643 248.671 582.118 238.418 600 225.062H620.5C599.452 238.165 594.238 247.993 582 266.058Z" fill="#050508"/>
<path d="M668 286.056C676.247 268.259 684.023 258.28 697.5 249.06L715.5 255.559C690.094 266.854 680.387 273.576 668 286.056Z" fill="#050508"/>
<path d="M375.5 255.559C375.157 240.954 377.198 231.269 390 208.064H409C391.886 221.025 384.791 231.793 375.5 255.559Z" stroke="#050508" stroke-width="3"/>
<path d="M409 255.559C412.487 239.793 414.583 230.86 429.5 208.064L458 198.064C430.41 224.467 420.625 236.625 409 255.559Z" stroke="#050508" stroke-width="3"/>
<path d="M582 266.058C579.643 248.671 582.118 238.418 600 225.062H620.5C599.452 238.165 594.238 247.993 582 266.058Z" stroke="#050508" stroke-width="3"/>
<path d="M668 286.056C676.247 268.259 684.023 258.28 697.5 249.06L715.5 255.559C690.094 266.854 680.387 273.576 668 286.056Z" stroke="#050508" stroke-width="3"/>
<path d="M615 557.532C624.508 509.069 634.528 480.147 674 420.545L772.5 420.546C803.648 475.748 816.358 505.877 826.5 557.533L795 531.035C818.762 589.042 822.675 620.641 834.5 666.522L803 631.026C811.225 681.433 814.746 709.164 809.5 753.014L795 723.017C789.098 748.54 785.903 764.158 772.5 801.509C773.406 787.199 765.878 773.052 755.48 759.513C747.929 807.483 735.621 832.481 706.98 875.502C690.785 835.187 690.912 809.546 674 736.016C668.122 739.895 660.319 748.843 640 766.013C640.611 716.472 642.986 687.866 648 635.025C642.166 627.901 634.532 637.587 608.5 656.023C609.801 621.396 618.8 593.317 648 531.035C645.249 525.857 639.874 535.606 615 557.532Z" fill="#146EFF"/>
<path d="M612.5 552.031L666.5 424.543C675.68 455.013 683.128 472.541 666.5 498.036L699 487.537C665.781 545.381 651.799 574.256 658.5 601.526L683 582.028C670.359 623.978 671.469 644.603 683 678.019L699 636.523C695.977 685.214 699.248 707.884 718 736.513L728.5 689.518C732.307 728.007 735.974 747.917 758.5 766.01L710.5 883.999L676.5 736.513L639 766.01L651 636.523L612.5 653.521L651 531.533L612.5 552.031Z" fill="white" fill-opacity="0.25"/>
<path d="M667.5 420.545L608.5 557.532L648 531.034L608.5 656.023L648 635.025L640 766.012L674 736.015L709.5 882.001L758 766.012L772.5 801.509L795 723.016L809.5 753.013L803 631.025L834.5 666.522L795 531.034L826.5 557.532L772.5 420.545" stroke="#050508" stroke-width="15"/>
</svg>
