<svg height="20" viewBox="0 0 20 20" width="20" xmlns="http://www.w3.org/2000/svg"><path d="m261.286 2445.91818-.713907.71972-4.254366-4.22273.713908-.72071c.392047-.38823 1.026742-.38823 1.41879 0l2.835575 2.81615c.392047.38822.392047 1.01835 0 1.40757zm-9.575581 9.64997.029078-2.2358c.014038-1.11889-.903413-2.02974-2.030424-2.0158l-2.252016.02787 7.45291-7.51172 4.254365 4.22373zm11.702262-11.76133-4.253362-4.22373c-.783092-.77745-2.053486-.77745-2.836578 0l-12.02713 12.08386c-.635698.63212-.177474 1.71119.721929 1.69925l3.687852-.04579c.564508-.00697 1.022732.44795 1.015713 1.0074l-.047126 3.66229c-.011029.89292 1.075874 1.34785 1.711573.71573l12.027129-12.08386c.783092-.77745.783092-2.0377 0-2.81515z" fill-rule="evenodd" transform="translate(-244 -2439)"/></svg>