<svg width="20" height="20" viewBox="0 0 20 20" fill="none" xmlns="http://www.w3.org/2000/svg">
<g clip-path="url(#clip0_181_274)">
<path fill-rule="evenodd" clip-rule="evenodd" d="M18 13.9307C18 14.3693 17.729 14.7596 17.324 14.9024L11 17.1292V5.23883V5.05694L16.676 3.05816C17.325 2.82912 18 3.32424 18 4.02984V13.9307ZM9 5.23883V17.1292L2.67599 14.9024C2.27099 14.7596 2 14.3693 2 13.9307V4.02984C2 3.32424 2.67501 2.82912 3.32401 3.05816L9 5.05694V5.23883ZM17.337 0.641659L10.331 3.16827C10.117 3.2453 9.88301 3.2453 9.66901 3.16827L2.66299 0.641659C1.36199 0.172279 0 1.16333 0 2.57965V14.6395C0 15.5207 0.547001 16.3043 1.36 16.5858L9.67999 19.4698C9.88799 19.5417 10.112 19.5417 10.32 19.4698L18.64 16.5858C19.453 16.3043 20 15.5207 20 14.6395V2.57965C20 1.16333 18.638 0.172279 17.337 0.641659Z" fill="white" fill-opacity="1"/>
</g>
<defs>
<clipPath id="clip0_181_274">
<rect width="20" height="19" fill="white" transform="translate(0 0.523804)"/>
</clipPath>
</defs>
</svg>
