<svg width="20" height="20" viewBox="0 0 20 20" fill="none" xmlns="http://www.w3.org/2000/svg">
<g clip-path="url(#clip0_181_277)">
<path fill-rule="evenodd" clip-rule="evenodd" d="M10 14.0238H14V10.0238H10V14.0238ZM6 10.0238H10V6.0238H6V10.0238ZM18 6.0238H14V10.0238H18V14.0238H14V18.0238H10V14.0238H6V18.0238H3C2.448 18.0238 2 17.6808 2 17.1288V14.0238H6V10.0238H2V6.0238H6V2.0238H10V6.0238H14V2.0238H17C17.552 2.0238 18 2.57578 18 3.12878V6.0238ZM18 0.0238037H2C0.895 0.0238037 0 0.918804 0 2.0238V18.0238C0 19.1278 0.895 20.0238 2 20.0238H18C19.105 20.0238 20 19.1278 20 18.0238V2.0238C20 0.918804 19.105 0.0238037 18 0.0238037Z" fill="white" fill-opacity="1"/>
</g>
<defs>
<clipPath id="clip0_181_277">
<rect width="20" height="20" fill="white" transform="translate(0 0.0238037)"/>
</clipPath>
</defs>
</svg>
