<svg width="20" height="20" viewBox="0 0 20 20" fill="none" xmlns="http://www.w3.org/2000/svg">
<g clip-path="url(#clip0_181_271)">
<path d="M7.50002 15.8572C3.33335 17.1072 3.33335 13.7738 1.66669 13.3572M13.3334 18.3572V15.1322C13.3646 14.7348 13.3109 14.3353 13.1759 13.9603C13.0408 13.5853 12.8275 13.2434 12.55 12.9572C15.1667 12.6655 17.9167 11.6738 17.9167 7.12383C17.9165 5.96036 17.4689 4.8415 16.6667 3.99883C17.0466 2.98092 17.0197 1.85579 16.5917 0.857166C16.5917 0.857166 15.6084 0.5655 13.3334 2.0905C11.4234 1.57285 9.41001 1.57285 7.50002 2.0905C5.22502 0.5655 4.24169 0.857166 4.24169 0.857166C3.81367 1.85579 3.78681 2.98092 4.16669 3.99883C3.35846 4.84775 2.91046 5.97672 2.91669 7.14883C2.91669 11.6655 5.66669 12.6572 8.28335 12.9822C8.00918 13.2655 7.79774 13.6033 7.66278 13.9738C7.52782 14.3442 7.47236 14.7389 7.50002 15.1322V18.3572" stroke="white" stroke-opacity="1" stroke-width="2" stroke-linecap="round" stroke-linejoin="round"/>
</g>
<defs>
<clipPath id="clip0_181_271">
<rect width="20" height="20" fill="white" transform="translate(0 0.0238037)"/>
</clipPath>
</defs>
</svg>
