<svg height="20" viewBox="0 0 21 20" width="21" xmlns="http://www.w3.org/2000/svg"><path d="m326.15 444c-.5796 0-1.05-.448-1.05-1s.4704-1 1.05-1 1.05.448 1.05 1-.4704 1-1.05 1m1.05-4h-2.1c-1.16025 0-2.1.895-2.1 2v2c0 1.105.93975 2 2.1 2h2.1c1.16025 0 2.1-.895 2.1-2v-2c0-1.105-.93975-2-2.1-2m-1.05 11c-.5796 0-1.05-.448-1.05-1s.4704-1 1.05-1 1.05.448 1.05 1-.4704 1-1.05 1m1.05-4h-2.1c-1.16025 0-2.1.895-2.1 2v2c0 1.105.93975 2 2.1 2h2.1c1.16025 0 2.1-.895 2.1-2v-2c0-1.105-.93975-2-2.1-2m-1.05 11c-.5796 0-1.05-.448-1.05-1s.4704-1 1.05-1 1.05.448 1.05 1-.4704 1-1.05 1m1.05-4h-2.1c-1.16025 0-2.1.895-2.1 2v2c0 1.105.93975 2 2.1 2h2.1c1.16025 0 2.1-.895 2.1-2v-2c0-1.105-.93975-2-2.1-2m13.65-3h-6.3c-.5796 0-1.05-.448-1.05-1s.4704-1 1.05-1h6.3c.5796 0 1.05.448 1.05 1s-.4704 1-1.05 1m1.05-4h-8.4c-1.16025 0-2.1.895-2.1 2v2c0 1.105.93975 2 2.1 2h8.4c1.16025 0 2.1-.895 2.1-2v-2c0-1.105-.93975-2-2.1-2m-1.05-3h-6.3c-.5796 0-1.05-.448-1.05-1s.4704-1 1.05-1h6.3c.5796 0 1.05.448 1.05 1s-.4704 1-1.05 1m1.05-4h-8.4c-1.16025 0-2.1.895-2.1 2v2c0 1.105.93975 2 2.1 2h8.4c1.16025 0 2.1-.895 2.1-2v-2c0-1.105-.93975-2-2.1-2m-1.05 18h-6.3c-.5796 0-1.05-.448-1.05-1s.4704-1 1.05-1h6.3c.5796 0 1.05.448 1.05 1s-.4704 1-1.05 1m1.05-4h-8.4c-1.16025 0-2.1.895-2.1 2v2c0 1.105.93975 2 2.1 2h8.4c1.16025 0 2.1-.895 2.1-2v-2c0-1.105-.93975-2-2.1-2" fill-rule="evenodd" transform="translate(-323 -440)"/></svg>