<svg width="20" height="20" viewBox="0 0 20 20" fill="none" xmlns="http://www.w3.org/2000/svg">
<g clip-path="url(#clip0_181_235)">
<path fill-rule="evenodd" clip-rule="evenodd" d="M16 16.6191C16 17.4475 15.3284 18.1191 14.5 18.1191C13.6715 18.1191 13 17.4475 13 16.6191V16.2143C13 15.1623 12.1472 14.3095 11.0952 14.3095H8.90474C7.85277 14.3095 6.99998 15.1623 6.99998 16.2143V16.6191C6.99998 17.4475 6.3284 18.1191 5.49998 18.1191C4.67155 18.1191 3.99998 17.4475 3.99998 16.6191V10.2267C3.99998 9.67931 4.22431 9.15587 4.62067 8.77839L8.61078 4.97828C9.38315 4.2427 10.5968 4.24265 11.3693 4.97817L15.3791 8.79645C15.7756 9.17394 16 9.69743 16 10.2448V16.6191ZM18.0014 8.6004C18.0005 8.59956 18 8.59839 18 8.59716C18 8.59594 17.9995 8.59477 17.9986 8.59392L11.3806 2.28951C10.6085 1.55398 9.3951 1.5536 8.62253 2.28865L0.739223 9.78907C0.336854 10.1719 0.336352 10.8134 0.738122 11.1969L1.23991 11.6758C1.33559 11.7671 1.48621 11.7669 1.58169 11.6754C1.73886 11.5247 2.00001 11.6361 2.00001 11.8538V18.0238C2.00001 19.1284 2.89544 20.0238 4.00001 20.0238H7.09522C8.14719 20.0238 8.99998 19.171 8.99998 18.1191V17.2143C8.99998 16.662 9.4477 16.2143 9.99999 16.2143C10.5523 16.2143 11 16.662 11 17.2143V18.1191C11 19.171 11.8528 20.0238 12.9048 20.0238H17.9971C17.9987 20.0238 18 20.0225 18 20.021V11.8657C18 11.6495 18.2588 11.5385 18.4154 11.6874C18.5104 11.7777 18.6595 11.7777 18.7544 11.6874L19.2574 11.2091C19.6619 10.8244 19.6619 10.1795 19.2574 9.7948L18.0014 8.6004Z" fill="white" fill-opacity="1"/>
</g>
<defs>
<clipPath id="clip0_181_235">
<rect width="20" height="19" fill="white" transform="translate(0 0.976196)"/>
</clipPath>
</defs>
</svg>
