<svg width="20" height="20" viewBox="0 0 20 20" fill="none" xmlns="http://www.w3.org/2000/svg">
<g clip-path="url(#clip0_181_265)">
<path fill-rule="evenodd" clip-rule="evenodd" d="M12.0373 0.0238037H8.49625C3.81225 0.0238037 0.186254 3.19477 0.00725431 7.34277C-0.164746 11.3468 2.74225 14.6998 6.55525 15.2488C7.09125 15.3258 7.55325 15.6648 7.81725 16.1368L10.0003 20.0248L12.1823 16.1378C12.4473 15.6658 12.9103 15.3258 13.4453 15.2488C17.2593 14.6988 20.1653 11.3468 19.9933 7.34277C19.8143 3.19477 16.1883 0.0238037 12.0373 0.0238037ZM11.9393 2.01978C15.0963 2.01978 17.8172 4.44578 17.9462 7.42578C18.0712 10.3408 16.0173 12.8528 13.1363 13.2678C11.2163 13.5448 10.5473 14.9388 9.99425 15.9388C9.43625 14.9388 8.76326 13.5468 6.83925 13.2688C3.95725 12.8538 1.87926 10.3428 2.00526 7.42883C2.13726 4.34783 4.92825 2.0238 8.49625 2.0238H12.0003" fill="white" fill-opacity="1"/>
</g>
<defs>
<clipPath id="clip0_181_265">
<rect width="20" height="20" fill="white" transform="translate(0 0.0238037)"/>
</clipPath>
</defs>
</svg>
