<svg width="20" height="20" viewBox="0 0 20 20" fill="none" xmlns="http://www.w3.org/2000/svg">
<g clip-path="url(#clip0_181_255)">
<path fill-rule="evenodd" clip-rule="evenodd" d="M10 10.0238C7.7835 10.0238 5.98096 8.22979 5.98096 6.02379C5.98096 3.81779 7.7835 2.02379 10 2.02379C12.2165 2.02379 14.019 3.81779 14.019 6.02379C14.019 8.22979 12.2165 10.0238 10 10.0238ZM13.7759 10.6968C15.3705 9.41976 16.2999 7.35473 15.9582 5.09373C15.5614 2.47073 13.369 0.371781 10.7224 0.0657806C7.07012 -0.357219 3.97144 2.47279 3.97144 6.02379C3.97144 7.91379 4.8516 9.59776 6.22411 10.6968C2.85213 11.9578 0.390463 14.9188 0.00463406 18.9148C-0.0516319 19.5058 0.411567 20.0238 1.0084 20.0238C1.51982 20.0238 1.95589 19.6398 2.0011 19.1328C2.40401 14.6698 5.83728 12.0238 10 12.0238C14.1627 12.0238 17.596 14.6698 17.9989 19.1328C18.0441 19.6398 18.4802 20.0238 18.9916 20.0238C19.5884 20.0238 20.0516 19.5058 19.9954 18.9148C19.6095 14.9188 17.1479 11.9578 13.7759 10.6968Z" fill="white" fill-opacity="1"/>
</g>
<defs>
<clipPath id="clip0_181_255">
<rect width="20" height="20" fill="white" transform="translate(0 0.0238037)"/>
</clipPath>
</defs>
</svg>
