<svg width="20" height="20" viewBox="0 0 20 20" fill="none" xmlns="http://www.w3.org/2000/svg">
<g clip-path="url(#clip0_181_244)">
<path fill-rule="evenodd" clip-rule="evenodd" d="M16 4.9762V2.9762C17.103 2.9762 18 3.8732 18 4.9762H16ZM14 16.9762C14 18.0792 13.103 18.9762 12 18.9762V16.9762C12 15.8712 11.105 14.9762 10 14.9762H6V4.9762C6 3.8712 6.895 2.9762 8 2.9762H14V16.9762ZM10 18.9762H4C2.897 18.9762 2 18.0792 2 16.9762H9C9.552 16.9762 10 17.4242 10 17.9762V18.9762ZM16 0.976196H8C5.791 0.976196 4 2.7672 4 4.9762V14.9762H1C0.448 14.9762 0 15.4242 0 15.9762V16.9762C0 19.1852 1.791 20.9762 4 20.9762H12C14.209 20.9762 16 19.1852 16 16.9762V6.9762H19C19.552 6.9762 20 6.5282 20 5.9762V4.9762C20 2.7672 18.209 0.976196 16 0.976196Z" fill="white"/>
</g>
<defs>
<clipPath id="clip0_181_244">
<rect width="20" height="20" fill="white" transform="translate(0 0.976196)"/>
</clipPath>
</defs>
</svg>
