<svg width="24" height="24" viewBox="0 0 24 24" fill="none" xmlns="http://www.w3.org/2000/svg">
<path d="M12 0C5.37581 0 0 5.37581 0 12C0 18.6242 5.37581 24 12 24C18.6242 24 24 18.6242 24 12C24 5.37581 18.6242 0 12 0Z" fill="#146EFF"/>
<path d="M19.6742 10.7952C19.4225 10.7952 19.2677 10.7323 19.05 10.6065C15.6048 8.55 9.44513 8.05645 5.45803 9.16936C5.28384 9.21774 5.0661 9.29516 4.83384 9.29516C4.19513 9.29516 3.70642 8.79678 3.70642 8.15323C3.70642 7.49516 4.11287 7.12258 4.54836 6.99678C6.25158 6.49839 8.15803 6.26129 10.2338 6.26129C13.7661 6.26129 17.4677 6.99678 20.1725 8.57419C20.55 8.79194 20.7967 9.09194 20.7967 9.66774C20.7967 10.3258 20.2645 10.7952 19.6742 10.7952ZM18.1742 14.4823C17.9225 14.4823 17.7532 14.371 17.579 14.279C14.5548 12.4887 10.0451 11.7677 6.03384 12.8565C5.80158 12.9194 5.67578 12.9823 5.45803 12.9823C4.94029 12.9823 4.51932 12.5613 4.51932 12.0435C4.51932 11.5258 4.77094 11.1823 5.26932 11.0419C6.61449 10.6645 7.98868 10.3839 10.0016 10.3839C13.1419 10.3839 16.1758 11.1629 18.5661 12.5855C18.958 12.8177 19.1129 13.1177 19.1129 13.5387C19.108 14.0613 18.7016 14.4823 18.1742 14.4823ZM16.8725 17.6565C16.6693 17.6565 16.5435 17.5935 16.3548 17.4823C13.3355 15.6629 9.82255 15.5855 6.3532 16.2968C6.16449 16.3452 5.91771 16.4226 5.77739 16.4226C5.30803 16.4226 5.01287 16.05 5.01287 15.6581C5.01287 15.1597 5.30803 14.9226 5.67094 14.8452C9.63384 13.9694 13.6838 14.0468 17.1387 16.1129C17.4338 16.3016 17.608 16.471 17.608 16.9113C17.608 17.3516 17.2645 17.6565 16.8725 17.6565Z" fill="#141417"/>
</svg>
