<svg width="20" height="20" viewBox="0 0 20 21" fill="none" xmlns="http://www.w3.org/2000/svg">
<g clip-path="url(#clip0_181_250)">
<path fill-rule="evenodd" clip-rule="evenodd" d="M14.2326 7.25256C13.8416 6.85334 13.8416 6.20716 14.2326 5.80896L16.3536 3.64221C16.7446 3.24402 17.3775 3.24402 17.7685 3.64221C18.1585 4.04142 18.1585 4.68782 17.7685 5.08704L15.6466 7.25256C15.2566 7.65177 14.6236 7.65177 14.2326 7.25256ZM9.00056 4.10779V1.0448C9.00056 0.48018 9.44756 0.0238037 10.0006 0.0238037C10.5526 0.0238037 11.0006 0.48018 11.0006 1.0448V4.10779C11.0006 4.67139 10.5526 5.12878 10.0006 5.12878C9.44756 5.12878 9.00056 4.67139 9.00056 4.10779ZM2.23255 5.08704C1.84155 4.68782 1.84155 4.04142 2.23255 3.64221C2.62355 3.24402 3.25656 3.24402 3.64656 3.64221L5.76855 5.80896C6.15855 6.20716 6.15855 6.85334 5.76855 7.25256C5.37755 7.65177 4.74456 7.65177 4.35356 7.25256L2.23255 5.08704ZM14.9866 16.4957C11.6546 15.6636 8.34556 15.6636 5.01356 16.4957C5.01056 16.4498 5.00056 16.4059 5.00056 16.36C5.00056 13.5451 7.24356 11.255 10.0006 11.255C12.7576 11.255 15.0006 13.5451 15.0006 16.36C15.0006 16.4059 14.9896 16.4498 14.9866 16.4957ZM19.4306 18.0824C18.6006 17.6954 17.7736 17.3616 16.9486 17.0768C17.4016 12.8467 14.1116 9.21301 10.0006 9.21301C5.88256 9.21301 2.59955 12.8539 3.05255 17.0768C2.22755 17.3616 1.40055 17.6954 0.570551 18.0824C0.0575511 18.3213 -0.14544 18.9624 0.11056 19.475C0.35656 19.9671 0.935553 20.1561 1.42855 19.9274C7.22355 17.2339 12.7775 17.2339 18.5725 19.9274C19.0655 20.1561 19.6446 19.9671 19.8896 19.475C20.1456 18.9624 19.9426 18.3213 19.4306 18.0824Z" fill="white" fill-opacity="1"/>
</g>
<defs>
<clipPath id="clip0_181_250">
<rect width="20" height="20" fill="white" transform="translate(0 0.0238037)"/>
</clipPath>
</defs>
</svg>
