<svg width="12" height="16" viewBox="0 0 12 16" fill="none" xmlns="http://www.w3.org/2000/svg">
<g clip-path="url(#clip0_54_174)">
<path d="M11.2624 3.98322C11.462 4.07055 11.5587 4.22649 11.5587 4.44482V13.7236C11.5587 13.8764 11.4932 14.0167 11.3591 14.1353C11.2281 14.2569 11.0721 14.3162 10.8975 14.3162C10.3922 14.3162 10.1365 14.1166 10.1365 13.7205V5.10603C10.1365 4.97503 10.071 4.87523 9.93684 4.80973L3.26862 1.24169C2.91618 1.13253 2.54191 1.18555 2.14581 1.40699C1.66238 1.62844 1.35361 1.86859 1.22261 2.1337L7.95945 5.89823C8.15906 5.98556 8.25575 6.1415 8.25575 6.35983V15.4421C8.25575 15.6854 8.15595 15.8382 7.95945 15.9037C7.89396 15.9474 7.80663 15.9692 7.69435 15.9692C7.54152 15.9692 7.42924 15.9474 7.36374 15.9037C7.27641 15.8382 6.16296 15.1396 4.02963 13.8078C1.8963 12.476 0.726706 11.7524 0.530214 11.6433C0.243275 11.4436 0.0998051 11.2565 0.0998051 11.0819L0 2.42999C0 2.12122 0.0779727 1.83428 0.230799 1.57229C0.539571 1.06703 1.10097 0.64286 1.91501 0.299779C2.72904 -0.0433011 3.36842 -0.0900847 3.83002 0.150071L11.2624 3.98322Z" fill="#146EFF"/>
</g>
<defs>
<clipPath id="clip0_54_174">
<rect width="11.5711" height="16" fill="white"/>
</clipPath>
</defs>
</svg>
